<svg xmlns="http://www.w3.org/2000/svg" viewBox="0 0 72 72"><path fill="#fff" d="M16.405 11.378H55.97v49.066H16.405z"/><path fill="#f4aa41" d="m39.931 40.222 11.294-11.294 5.631 7.431-10.5 10.512"/><path fill="#a57939" d="m37.942 46.819 1.96-5.649 6.454 6.454-5.648 1.961"/><path fill="#ea5a47" d="m55.322 25.58 3.978-3.979 6.735 6.584-3.945 3.945"/><path fill="#d0cfce" d="m50.494 29.659 4.608-4.607 6.682 6.739-4.569 4.568"/><path d="m38.07 47.191 2.386 2.386-3.464 1.28 1.078-3.666z"/><path fill="none" stroke="#000" stroke-linecap="round" stroke-linejoin="round" stroke-width="2" d="M22.322 19.875h27M22.322 27.875h25.6M22.322 35.875h17.109M22.322 43.875h12.206M22.322 51.875h10.146"/><path d="m38.07 47.191 2.386 2.386-3.464 1.28 1.078-3.666z"/><path fill="none" stroke="#000" stroke-linecap="round" stroke-linejoin="round" stroke-width="2" d="m40.692 49.591 5.664-1.967 15.59-15.59-6.454-6.454-15.59 15.59-1.974 5.671 2.764 2.75zM58.086 22.986l1.555-1.555 6.454 6.454-1.632 1.632M40.279 40.793l6.454 6.454"/><path fill="none" stroke="#000" stroke-linecap="round" stroke-linejoin="round" stroke-width="2" d="m37.932 46.828-1.383 4.149 4.159-1.392M51.302 30.157l5.893 5.893"/><path fill="none" stroke="#000" stroke-linecap="round" stroke-linejoin="round" stroke-width="2.021" d="M55.322 44.228v15.647h-39v-48h39v8.456"/></svg>